<?xml version="1.0" encoding="UTF-8" standalone="no"?>
<!-- Created with Inkscape (http://www.inkscape.org/) -->

<svg
   xmlns:dc="http://purl.org/dc/elements/1.1/"
   xmlns:cc="http://creativecommons.org/ns#"
   xmlns:rdf="http://www.w3.org/1999/02/22-rdf-syntax-ns#"
   xmlns:svg="http://www.w3.org/2000/svg"
   xmlns="http://www.w3.org/2000/svg"
   xmlns:sodipodi="http://sodipodi.sourceforge.net/DTD/sodipodi-0.dtd"
   xmlns:inkscape="http://www.inkscape.org/namespaces/inkscape"
   width="408.91901mm"
   height="246.09778mm"
   viewBox="0 0 1448.9256 872"
   id="svg7187"
   version="1.1"
   inkscape:version="0.91 r13725"
   sodipodi:docname="logo.svg">
  <defs
     id="defs7189" />
  <sodipodi:namedview
     id="base"
     pagecolor="#ffffff"
     bordercolor="#666666"
     borderopacity="1.0"
     inkscape:pageopacity="0.0"
     inkscape:pageshadow="2"
     inkscape:zoom="0.7"
     inkscape:cx="818.77276"
     inkscape:cy="514.52938"
     inkscape:document-units="px"
     inkscape:current-layer="layer1"
     showgrid="false"
     fit-margin-top="0"
     fit-margin-left="0"
     fit-margin-right="0"
     fit-margin-bottom="0"
     inkscape:window-width="1920"
     inkscape:window-height="1078"
     inkscape:window-x="1920"
     inkscape:window-y="0"
     inkscape:window-maximized="1" />
  <metadata
     id="metadata7192">
    <rdf:RDF>
      <cc:Work
         rdf:about="">
        <dc:format>image/svg+xml</dc:format>
        <dc:type
           rdf:resource="http://purl.org/dc/dcmitype/StillImage" />
        <dc:title></dc:title>
      </cc:Work>
    </rdf:RDF>
  </metadata>
  <g
     inkscape:label="Layer 1"
     inkscape:groupmode="layer"
     id="layer1"
     transform="translate(261.60568,-350.64792)">
    <rect
       style="fill:#e6e6e6;fill-opacity:1;stroke:none;stroke-width:6.5999999;stroke-linecap:round;stroke-linejoin:round;stroke-miterlimit:4;stroke-dasharray:none;stroke-opacity:1"
       id="rect7170"
       width="1448.9257"
       height="872"
       x="-261.60568"
       y="350.64792"
       ry="5.4800801"
       inkscape:export-xdpi="90"
       inkscape:export-ydpi="90" />
    <path
       style="fill:#333333;fill-opacity:1;stroke:none;stroke-width:6.5999999;stroke-linecap:round;stroke-linejoin:round;stroke-miterlimit:4;stroke-dasharray:none;stroke-opacity:1"
       d="m 17.492627,789.06228 a 60.082285,60.082285 0 0 0 -60.083223,60.08322 60.082285,60.082285 0 0 0 0.06609,1.91407 60.082285,60.082285 0 0 0 -14.751595,-1.91407 60.082285,60.082285 0 0 0 -60.083229,60.0796 60.082285,60.082285 0 0 0 30.79756,52.43448 l 0,98.45952 0.191841,0 a 102.80747,101.80609 0 0 0 102.72265,99.4515 102.80747,101.80609 0 0 0 78.345749,-36.0566 c 1.57249,3.8503 3.92387,7.4607 7.05867,10.5955 l 7.70406,7.7076 c 12.57978,12.5798 32.83663,12.5798 45.41641,0 l 26.21356,-26.2135 27.86574,27.8657 c 12.57997,12.5798 32.83663,12.5798 45.4166,0 l 7.70387,-7.7076 c 0.23471,-0.2347 0.43429,-0.4904 0.66031,-0.7302 4.15593,9.2775 13.43381,15.7214 24.29211,15.7214 l 9.0428,0 c 12.21423,0 22.43092,-8.1482 25.59763,-19.3209 2.92817,11.5341 13.31211,20.029 25.78209,20.029 l 9.04272,0 c 14.75626,0 26.63401,-11.8778 26.63401,-26.6339 l 0,-126.57979 c 0,-14.75744 -11.87775,-26.63784 -26.63401,-26.63784 l -9.04272,0 c -12.21425,0 -22.431,8.15195 -25.59761,19.32464 -2.92823,-11.53409 -13.31222,-20.03271 -25.78211,-20.03271 l -9.0428,0 c -11.35414,0 -20.97662,7.04715 -24.82327,17.01234 l -7.12495,-7.12873 c -12.57997,-12.57978 -32.83662,-12.57978 -45.41659,0 l -28.57382,28.57379 -26.92164,-26.92161 c -9.60284,-9.60265 -23.66901,-11.85074 -35.3891,-6.79319 l 0,-12.24368 a 60.082285,60.082285 0 0 0 34.23107,-54.17522 60.082285,60.082285 0 0 0 -60.08322,-60.08319 60.082285,60.082285 0 0 0 -15.456088,2.0504 60.082285,60.082285 0 0 0 0.103851,-2.04681 60.082285,60.082285 0 0 0 -60.083224,-60.08322 z m -0.350262,19.78932 a 41.637181,41.637181 0 0 1 41.636413,41.63622 41.637181,41.637181 0 0 1 -32.195392,40.50802 l 0,82.37287 c 21.951695,2.48526 42.050496,13.48858 55.971282,30.64269 l 0,-53.60721 a 41.637181,41.637181 0 0 1 -32.217485,-40.50803 41.637181,41.637181 0 0 1 41.636224,-41.63618 41.637181,41.637181 0 0 1 41.636413,41.63618 41.637181,41.637181 0 0 1 -32.17311,40.50425 l 0,106.67999 c -3.8e-4,46.5542 -37.739915,84.2938 -84.294345,84.2941 -46.55424,-3e-4 -84.293966,-37.7399 -84.294343,-84.2941 -0.0013,-37.1212 -5.67e-4,-71.75142 0,-106.67999 a 41.637181,41.637181 0 0 1 -32.22126,-40.50783 41.637181,41.637181 0 0 1 41.636412,-41.63638 41.637181,41.637181 0 0 1 41.636413,41.63638 41.637181,41.637181 0 0 1 -32.169524,40.50047 l 0,53.72905 c 13.9104,-17.17606 34.010712,-28.20148 55.9712811,-30.70184 l 0,-82.43178 A 41.637181,41.637181 0 0 1 -24.494047,850.48782 41.637181,41.637181 0 0 1 17.142365,808.8516 Z m -0.11518,20.64109 a 20.995764,20.995764 0 0 0 -20.9989076,20.99513 20.995764,20.995764 0 0 0 20.9989076,20.99532 20.995764,20.995764 0 0 0 20.99532,-20.99532 20.995764,20.995764 0 0 0 -20.99532,-20.99513 z m 74.827452,58.7409 a 21.663344,21.663344 0 0 0 -21.662609,21.66257 21.663344,21.663344 0 0 0 21.662609,21.6628 21.663344,21.663344 0 0 0 21.662803,-21.6628 21.663344,21.663344 0 0 0 -21.662803,-21.66257 z m -149.710231,0.32817 a 21.329555,21.329555 0 0 0 -21.327077,21.33082 21.329555,21.329555 0 0 0 21.327077,21.33085 21.329555,21.329555 0 0 0 21.330854,-21.33085 21.329555,21.329555 0 0 0 -21.330854,-21.33082 z M 291.20047,989.36313 c 9.61946,0 17.3626,7.74295 17.3626,17.36257 l 0,109.4162 c 0,9.6198 -7.74314,17.3664 -17.3626,17.3664 -9.61964,0 -17.3626,-7.7468 -17.3626,-17.3664 l 0,-109.4162 c 0,-9.61962 7.74296,-17.36257 17.3626,-17.36257 z m 59.41569,0 c 9.61953,0 17.36262,7.74295 17.36262,17.36257 l 0,109.4162 c 0,9.6196 -7.74309,17.3664 -17.36262,17.3664 -9.61953,0 -17.36633,-7.7468 -17.36633,-17.3664 l 0,-109.4162 c 0,-9.61962 7.7468,-17.36257 17.36633,-17.36257 z m -220.80182,2.78793 c 4.43842,0 8.87588,1.70316 12.27692,5.10419 l 39.62642,39.62265 39.62283,-39.62265 c 6.80207,-6.80206 17.75573,-6.80206 24.55779,0 6.80207,6.80185 6.80207,17.75195 0,24.55405 l -39.62642,39.6264 39.62642,39.6229 c 6.80207,6.802 6.80207,17.7555 0,24.5576 -6.80206,6.802 -17.75572,6.802 -24.55779,0 l -39.62283,-39.6265 -39.62642,39.6265 c -6.80207,6.802 -17.75195,6.802 -24.55402,0 -6.80207,-6.8021 -6.80207,-17.7556 0,-24.5576 l 39.62283,-39.6229 -39.62283,-39.6264 c -6.80207,-6.8021 -6.80207,-17.7522 0,-24.55405 3.40103,-3.40103 7.8385,-5.10419 12.2771,-5.10419 z M 17.027185,1022.1817 a 34.89806,34.89806 0 0 0 -34.898545,34.8987 34.89806,34.89806 0 0 0 34.898545,34.8948 34.89806,34.89806 0 0 0 34.894957,-34.8948 34.89806,34.89806 0 0 0 -34.894957,-34.8987 z"
       id="rect6551"
       inkscape:connector-curvature="0" />
    <path
       style="fill:#333333;fill-opacity:1;stroke:none;stroke-width:8;stroke-linecap:round;stroke-linejoin:round;stroke-miterlimit:4;stroke-dasharray:none;stroke-opacity:1"
       d="m 527.59506,546.35292 c -9.9775,0 -18.0098,8.0323 -18.0098,18.0098 l 0,64.9805 c 0,9.9774 8.0323,18.0097 18.0098,18.0097 l 17.4648,0 0,43.3457 0.1153,0 a 55,53.298172 0 0 0 -0.1153,3.1485 55,53.298172 0 0 0 55,53.2988 55,53.298172 0 0 0 55,-53.2988 55,53.298172 0 0 0 -0.1621,-3.1485 l 0.1621,0 0,-43.3457 99.96098,0 c 9.9774,0 18.0097,-8.0323 18.0097,-18.0097 l 0,-64.9805 c 0,-9.9775 -8.0323,-18.0098 -18.0097,-18.0098 l -227.42578,0 z m 165.5625,13.7305 c 4.3091,0 7.7793,3.4702 7.7793,7.7793 l 0,57.9824 c 0,4.3091 -3.4702,7.7774 -7.7793,7.7774 -4.3091,0 -7.7774,-3.4683 -7.7774,-7.7774 l 0,-57.9824 c 0,-4.3091 3.4683,-7.7793 7.7774,-7.7793 z m 23.68748,0 c 4.3091,0 7.7793,3.4702 7.7793,7.7793 l 0,57.9824 c 0,4.3091 -3.4702,7.7774 -7.7793,7.7774 -4.30908,0 -7.77738,-3.4683 -7.77738,-7.7774 l 0,-57.9824 c 0,-4.3091 3.4683,-7.7793 7.77738,-7.7793 z m 23.6894,0 c 4.3091,0 7.7774,3.4702 7.7774,7.7793 l 0,57.9824 c 0,4.3091 -3.4683,7.7774 -7.7774,7.7774 -4.3091,0 -7.7793,-3.4683 -7.7793,-7.7774 l 0,-57.9824 c 0,-4.3091 3.4702,-7.7793 7.7793,-7.7793 z m -140.46088,1.3184 a 22.051207,22.051207 0 0 1 22.0508,22.0507 22.051207,22.051207 0 0 1 -17.0508,21.4532 l 0,43.625 c 11.6257,1.3162 22.2701,7.1437 29.6426,16.2285 l 0,-28.3906 a 22.051207,22.051207 0 0 1 -17.0625,-21.4532 22.051207,22.051207 0 0 1 22.0508,-22.0508 22.051207,22.051207 0 0 1 22.0507,22.0508 22.051207,22.051207 0 0 1 -17.039,21.4512 l 0,56.498 c -2e-4,24.6554 -19.9872,44.6425 -44.6426,44.6426 -24.6554,-2e-4 -44.6424,-19.9873 -44.6426,-44.6426 -7e-4,-19.6594 -3e-4,-37.9998 0,-56.498 a 22.051207,22.051207 0 0 1 -17.0644,-21.4531 22.051207,22.051207 0 0 1 22.0507,-22.0508 22.051207,22.051207 0 0 1 22.0508,22.0508 22.051207,22.051207 0 0 1 -17.0371,21.4492 l 0,28.4551 c 7.367,-9.0966 18.0122,-14.9357 29.6426,-16.2598 l 0,-43.6562 a 22.051207,22.051207 0 0 1 -17.0508,-21.4493 22.051207,22.051207 0 0 1 22.0508,-22.0507 z m -0.061,10.9316 a 11.119435,11.119435 0 0 0 -11.1211,11.1191 11.119435,11.119435 0 0 0 11.1211,11.1192 11.119435,11.119435 0 0 0 11.1191,-11.1192 11.119435,11.119435 0 0 0 -11.1191,-11.1191 z m 39.6289,31.1094 a 11.472988,11.472988 0 0 0 -11.4727,11.4726 11.472988,11.472988 0 0 0 11.4727,11.4727 11.472988,11.472988 0 0 0 11.4726,-11.4727 11.472988,11.472988 0 0 0 -11.4726,-11.4726 z m -79.2872,0.1738 a 11.296212,11.296212 0 0 0 -11.2949,11.2969 11.296212,11.296212 0 0 0 11.2949,11.2969 11.296212,11.296212 0 0 0 11.2969,-11.2969 11.296212,11.296212 0 0 0 -11.2969,-11.2969 z m 39.6583,70.7656 a 18.482143,18.482143 0 0 0 -18.4825,18.4824 18.482143,18.482143 0 0 0 18.4825,18.4805 18.482143,18.482143 0 0 0 18.4804,-18.4805 18.482143,18.482143 0 0 0 -18.4804,-18.4824 z"
       id="rect6007-2"
       inkscape:connector-curvature="0" />
    <path
       style="fill:#333333;fill-opacity:1;stroke:none;stroke-width:5;stroke-linecap:round;stroke-linejoin:round;stroke-miterlimit:4;stroke-dasharray:none;stroke-opacity:1"
       d="m 316.09852,498.59312 a 36.604338,36.800936 0 0 0 -36.47266,34.1504 50.753914,51.026507 0 0 0 -23.20117,-5.6992 50.753914,51.026507 0 0 0 -50.6914,49.7891 l -0.3711,0 c -19.42675,0 -35.0664,15.723 -35.0664,35.2539 0,19.5312 15.63965,35.2558 35.0664,35.2558 l 0.85352,0 0,43.3555 0.11523,0 a 55,53.298172 0 0 0 -0.11523,3.1484 55,53.298172 0 0 0 55,53.2989 55,53.298172 0 0 0 55,-53.2989 55,53.298172 0 0 0 -0.16211,-3.1484 l 0.16211,0 0,-43.3555 83.35937,0 c 19.42675,0 35.06641,-15.7246 35.06641,-35.2558 0,-16.8194 -11.60124,-30.8032 -27.22852,-34.3653 a 47.370319,47.62474 0 0 0 0.96485,-9.5468 47.370319,47.62474 0 0 0 -47.36914,-47.625 47.370319,47.62474 0 0 0 -10.87305,1.3301 36.604338,36.800936 0 0 0 -34.03711,-23.2872 z m -54.86914,62.8086 a 22.051207,22.051207 0 0 1 22.05078,22.0508 22.051207,22.051207 0 0 1 -17.05078,21.4531 l 0,43.625 c 11.6257,1.3162 22.27008,7.1438 29.64258,16.2286 l 0,-28.3907 a 22.051207,22.051207 0 0 1 -17.0625,-21.4531 22.051207,22.051207 0 0 1 22.05078,-22.0508 22.051207,22.051207 0 0 1 22.05078,22.0508 22.051207,22.051207 0 0 1 -17.03906,21.4512 l 0,56.498 c -2e-4,24.6554 -19.98718,44.6425 -44.64258,44.6426 -24.6553,-2e-4 -44.64238,-19.9873 -44.64258,-44.6426 -7e-4,-19.6594 -3e-4,-37.9998 0,-56.498 a 22.051207,22.051207 0 0 1 -17.06445,-21.4531 22.051207,22.051207 0 0 1 22.05078,-22.0508 22.051207,22.051207 0 0 1 22.05078,22.0508 22.051207,22.051207 0 0 1 -17.03711,21.4492 l 0,28.455 c 7.367,-9.0964 18.01218,-14.9356 29.64258,-16.2597 l 0,-43.6563 a 22.051207,22.051207 0 0 1 -17.05078,-21.4492 22.051207,22.051207 0 0 1 22.05078,-22.0508 z m -0.0606,10.9317 a 11.119435,11.119435 0 0 0 -11.12109,11.1191 11.119435,11.119435 0 0 0 11.12109,11.1192 11.119435,11.119435 0 0 0 11.11914,-11.1192 11.119435,11.119435 0 0 0 -11.11914,-11.1191 z m 39.62891,31.1093 a 11.472988,11.472988 0 0 0 -11.47266,11.4727 11.472988,11.472988 0 0 0 11.47266,11.4727 11.472988,11.472988 0 0 0 11.47266,-11.4727 11.472988,11.472988 0 0 0 -11.47266,-11.4727 z m -79.28711,0.1739 a 11.296212,11.296212 0 0 0 -11.29492,11.2969 11.296212,11.296212 0 0 0 11.29492,11.2968 11.296212,11.296212 0 0 0 11.29688,-11.2968 11.296212,11.296212 0 0 0 -11.29688,-11.2969 z m 39.6582,70.7656 a 18.482143,18.482143 0 0 0 -18.48242,18.4824 18.482143,18.482143 0 0 0 18.48242,18.4805 18.482143,18.482143 0 0 0 18.48047,-18.4805 18.482143,18.482143 0 0 0 -18.48047,-18.4824 z"
       id="path5327-9-4-7-6"
       inkscape:connector-curvature="0" />
    <path
       style="fill:#333333;fill-opacity:1;stroke:none;stroke-width:6.5999999;stroke-linecap:round;stroke-linejoin:round;stroke-miterlimit:4;stroke-dasharray:none;stroke-opacity:1"
       d="m 880.49041,889.61652 c -16.8409,0 -31.1131,10.4526 -36.8186,25.2334 l -10.5683,-10.5736 c -18.6589,-18.6589 -48.7047,-18.6589 -67.3636,0 l -42.3818,42.3819 -39.9313,-39.9313 c -18.6589,-18.6589 -48.705,-18.6589 -67.3639,0 l -11.4269,11.4326 c -18.6592,18.6583 -18.6592,48.699 0,67.3579 l 39.9315,39.93688 -38.8813,38.8811 c -18.6591,18.6588 -18.6591,48.699 0,67.3582 l 11.427,11.4323 c 18.6589,18.6588 48.7049,18.6588 67.3638,0 l 38.8811,-38.8811 41.3316,41.3317 c 18.6589,18.6588 48.7047,18.6588 67.3635,0 l 11.427,-11.4324 c 0.3481,-0.3481 0.6442,-0.7273 0.9791,-1.083 6.1643,13.7608 19.9259,23.3186 36.0311,23.3186 l 13.4127,0 c 18.1166,0 33.2705,-12.0857 37.9675,-28.6575 4.3432,17.1079 19.7452,29.7078 38.2411,29.7078 l 13.4126,0 c 21.88719,0 39.50479,-17.6176 39.50479,-39.5045 l 0,-187.74838 c 0,-21.8872 -17.6176,-39.5104 -39.50479,-39.5104 l -13.4126,0 c -18.1167,0 -33.2705,12.0914 -37.9675,28.6632 -4.3433,-17.1079 -19.745,-29.7134 -38.2411,-29.7134 l -13.4127,0 z m 6.1867,27.3832 c 14.2683,0 25.7529,11.485 25.7529,25.753 l 0,162.29618 c 0,14.2683 -11.4846,25.7529 -25.7529,25.7529 -14.268,0 -25.7529,-11.4846 -25.7529,-25.7529 l 0,-162.29618 c 0,-14.268 11.4849,-25.753 25.7529,-25.753 z m 88.1279,0 c 14.2683,0 25.75299,11.485 25.75299,25.753 l 0,162.29618 c 0,14.2683 -11.48469,25.7529 -25.75299,25.7529 -14.268,0 -25.7582,-11.4846 -25.7582,-25.7529 l 0,-162.29618 c 0,-14.268 11.4902,-25.753 25.7582,-25.753 z m -327.5026,4.1408 c 6.5835,0 13.1654,2.5206 18.2099,7.5651 l 58.7756,58.7703 58.7702,-58.7703 c 5.0446,-5.0445 11.6318,-7.5651 18.2153,-7.5651 6.5832,0 13.1651,2.5206 18.2096,7.5651 10.0891,10.0892 10.0891,26.3305 0,36.4196 l -58.7756,58.77558 58.7756,58.7702 c 10.0891,10.0891 10.0891,26.3361 0,36.4249 -10.0888,10.0891 -26.3358,10.0891 -36.4249,0 l -58.7702,-58.7756 -58.7756,58.7756 c -10.0891,10.0891 -26.3307,10.0891 -36.4195,0 -10.0892,-10.0888 -10.0892,-26.3358 0,-36.4249 l 58.7699,-58.7702 -58.7699,-58.77558 c -10.0892,-10.0891 -10.0892,-26.3304 0,-36.4196 5.0445,-5.0445 11.6264,-7.5651 18.2096,-7.5651 z m 193.6835,65.4711 0,77.68008 -38.8373,-38.8374 38.8373,-38.84268 z"
       id="rect6590-3"
       inkscape:connector-curvature="0" />
    <path
       style="fill:#333333;fill-opacity:1;stroke:none;stroke-width:6.5999999;stroke-linecap:round;stroke-linejoin:round;stroke-miterlimit:4;stroke-dasharray:none;stroke-opacity:1"
       d="m -36.236387,384.92331 a 58.738656,58.738656 0 0 0 -58.7395,58.73961 58.738656,58.738656 0 0 0 0.065,1.8711 58.738656,58.738656 0 0 0 -14.421703,-1.8711 58.738656,58.738656 0 0 0 -58.7396,58.7359 58.738656,58.738656 0 0 0 30.109,51.262 l 0,96.2576 0.1874,0 a 100.50837,99.52939 0 0 0 100.425603,97.2275 100.50837,99.52939 0 0 0 100.5083,-99.5314 100.50837,99.52939 0 0 0 -0.3712,-8.0111 l 0,-84.2409 a 58.738656,58.738656 0 0 0 33.46556,-52.9636 58.738656,58.738656 0 0 0 -58.73976,-58.7396 58.738656,58.738656 0 0 0 -15.1102,2.0045 58.738656,58.738656 0 0 0 0.1052,-2.0008 58.738656,58.738656 0 0 0 -58.7396,-58.73961 l 0,0 z m -0.3389,19.3466 a 40.706043,40.706043 0 0 1 40.7053003,40.70531 40.706043,40.706043 0 0 1 -31.4754003,39.6019 l 0,80.5308 c 21.4608003,2.4297 41.1101,13.1869 54.7196,29.9575 l 0,-52.4085 a 40.706043,40.706043 0 0 1 -31.4969997,-39.6019 40.706043,40.706043 0 0 1 40.7050997,-40.7053 40.706043,40.706043 0 0 1 40.7053,40.7053 40.706043,40.706043 0 0 1 -31.4536,39.5984 l 0,104.2941 c -4e-4,45.5131 -36.8959997,82.4089 -82.4093,82.4093 -45.5131,-4e-4 -82.408903,-36.8962 -82.409203,-82.4093 0,-36.291 -6e-4,-70.1466 0,-104.2941 a 40.706043,40.706043 0 0 1 -31.5005,-39.6021 40.706043,40.706043 0 0 1 40.7051,-40.7051 40.706043,40.706043 0 0 1 40.705303,40.7051 40.706043,40.706043 0 0 1 -31.450203,39.5949 l 0,52.5273 c 13.599403,-16.7919 33.250203,-27.5706 54.719603,-30.015 l 0,-80.5886 a 40.706043,40.706043 0 0 1 -31.4754,-39.5947 40.706043,40.706043 0 0 1 40.7053,-40.70531 z m -0.1144,20.1797 a 20.526232,20.526232 0 0 0 -20.5293,20.52561 20.526232,20.526232 0 0 0 20.5293,20.5256 20.526232,20.526232 0 0 0 20.5256,-20.5256 20.526232,20.526232 0 0 0 -20.5256,-20.52561 z m 73.154,57.42701 a 21.178883,21.178883 0 0 0 -21.1783,21.1784 21.178883,21.178883 0 0 0 21.1783,21.1784 21.178883,21.178883 0 0 0 21.1819,-21.1784 21.178883,21.178883 0 0 0 -21.1819,-21.1784 z m -146.362203,0.3212 a 20.852559,20.852559 0 0 0 -20.8501,20.8535 20.852559,20.852559 0 0 0 20.8501,20.8538 20.852559,20.852559 0 0 0 20.853803,-20.8538 20.852559,20.852559 0 0 0 -20.853803,-20.8535 z m 73.208203,130.6316 a 34.117629,34.117629 0 0 0 -34.1181,34.1182 34.117629,34.117629 0 0 0 34.1181,34.1145 34.117629,34.117629 0 0 0 34.1146003,-34.1145 34.117629,34.117629 0 0 0 -34.1146003,-34.1182 z"
       id="rect6551-3"
       inkscape:connector-curvature="0" />
    <path
       inkscape:connector-curvature="0"
       style="fill:#333333;fill-opacity:1;stroke:none;stroke-width:6.5999999;stroke-linecap:round;stroke-linejoin:round;stroke-miterlimit:4;stroke-dasharray:none;stroke-opacity:1"
       d="m 874.09711,511.44866 c -7.80417,0 -14.08789,6.2837 -14.08789,14.0879 l 0,100.9394 c 0,7.80416 6.28372,14.08786 14.08789,14.08786 l 13.51562,0 0,50.1348 0.11524,0 a 55,53.298172 0 0 0 -0.11524,3.1484 55,53.298172 0 0 0 55,53.2989 55,53.298172 0 0 0 55.00003,-53.2989 55,53.298172 0 0 0 -0.1621,-3.1484 l 0.1621,0 0,-50.1348 13.51564,0 c 7.8042,0 14.0859,-6.2837 14.0859,-14.08786 l 0,-49.707 5.3946,0 c 0.6194,0 1.2221,-0.065 1.8105,-0.1699 l 0,49.8769 c 0,7.80416 6.2837,14.08786 14.0879,14.08786 l 50.8262,0 c 7.8041,0 14.0859,-6.2837 14.0859,-14.08786 l 0,-100.9394 c 0,-7.8042 -6.2818,-14.0879 -14.0859,-14.0879 l -50.8262,0 c -7.8042,0 -14.0879,6.2837 -14.0879,14.0879 l 0,27.7129 c -0.5884,-0.1048 -1.1912,-0.168 -1.8105,-0.168 l -5.3946,0 0,-27.5449 c 0,-7.8042 -6.2817,-14.0879 -14.0859,-14.0879 l -50.82621,0 c -7.80417,0 -14.08789,6.2837 -14.08789,14.0879 l 0,26.9766 a 31,31 0 0 0 -3.60352,-0.2325 31,31 0 0 0 -3.60156,0.2481 l 0,-26.9922 c 0,-7.8042 -6.28177,-14.0879 -14.08594,-14.0879 l -50.82617,0 z m 3.49219,13.0098 43.83984,0 c 3.03596,0 5.48047,2.4445 5.48047,5.4804 0,3.036 -2.44451,5.4805 -5.48047,5.4805 l -43.83984,0 c -3.03597,0 -5.48047,-2.4445 -5.48047,-5.4805 0,-3.0359 2.4445,-5.4804 5.48047,-5.4804 z m 86.20507,0 43.84183,0 c 3.036,0 5.4785,2.4445 5.4785,5.4804 0,3.036 -2.4425,5.4805 -5.4785,5.4805 l -43.84183,0 c -3.03596,0 -5.48047,-2.4445 -5.48047,-5.4805 0,-3.0359 2.44451,-5.4804 5.48047,-5.4804 z m 86.20513,0 43.8418,0 c 3.0359,0 5.4785,2.4445 5.4785,5.4804 0,3.036 -2.4426,5.4805 -5.4785,5.4805 l -43.8418,0 c -3.036,0 -5.4805,-2.4445 -5.4805,-5.4805 0,-3.0359 2.4445,-5.4804 5.4805,-5.4804 z m -172.4102,14.9375 43.83984,0 c 3.03596,0 5.48047,2.4445 5.48047,5.4804 0,3.036 -2.44451,5.4805 -5.48047,5.4805 l -43.83984,0 c -3.03597,0 -5.48047,-2.4445 -5.48047,-5.4805 0,-3.0359 2.4445,-5.4804 5.48047,-5.4804 z m 86.20507,0 43.84183,0 c 3.036,0 5.4785,2.4445 5.4785,5.4804 0,3.036 -2.4425,5.4805 -5.4785,5.4805 l -43.84183,0 c -3.03596,0 -5.48047,-2.4445 -5.48047,-5.4805 0,-3.0359 2.44451,-5.4804 5.48047,-5.4804 z m 86.20513,0 43.8418,0 c 3.0359,0 5.4785,2.4445 5.4785,5.4804 0,3.036 -2.4426,5.4805 -5.4785,5.4805 l -43.8418,0 c -3.036,0 -5.4805,-2.4445 -5.4805,-5.4805 0,-3.0359 2.4445,-5.4804 5.4805,-5.4804 z m -172.4102,14.9375 43.83984,0 c 3.03596,0 5.48047,2.4445 5.48047,5.4804 0,3.036 -2.44451,5.4805 -5.48047,5.4805 l -43.83984,0 c -3.03597,0 -5.48047,-2.4445 -5.48047,-5.4805 0,-3.0359 2.4445,-5.4804 5.48047,-5.4804 z m 86.20507,0 43.84183,0 c 3.036,0 5.4785,2.4445 5.4785,5.4804 0,3.036 -2.4425,5.4805 -5.4785,5.4805 l -43.84183,0 c -3.03596,0 -5.48047,-2.4445 -5.48047,-5.4805 0,-3.0359 2.44451,-5.4804 5.48047,-5.4804 z m 86.20513,0 43.8418,0 c 3.0359,0 5.4785,2.4445 5.4785,5.4804 0,3.036 -2.4426,5.4805 -5.4785,5.4805 l -43.8418,0 c -3.036,0 -5.4805,-2.4445 -5.4805,-5.4805 0,-3.0359 2.4445,-5.4804 5.4805,-5.4804 z m -107.37505,7.0683 a 22.051207,22.051207 0 0 1 22.05078,22.0508 22.051207,22.051207 0 0 1 -17.05078,21.4531 l 0,43.62496 c 11.6257,1.3162 22.27008,7.1437 29.64258,16.2285 l 0,-28.3906 a 22.051207,22.051207 0 0 1 -17.0625,-21.45306 22.051207,22.051207 0 0 1 22.05078,-22.0508 22.051207,22.051207 0 0 1 22.05079,22.0508 22.051207,22.051207 0 0 1 -17.03907,21.45116 l 0,56.498 c -2e-4,24.6554 -19.98718,44.6425 -44.64258,44.6426 -24.65531,-2e-4 -44.64238,-19.9873 -44.64258,-44.6426 -7e-4,-19.6594 -3e-4,-37.9998 0,-56.498 a 22.051207,22.051207 0 0 1 -17.06445,-21.45316 22.051207,22.051207 0 0 1 22.05078,-22.0507 22.051207,22.051207 0 0 1 22.05078,22.0507 22.051207,22.051207 0 0 1 -17.03711,21.44926 l 0,28.455 c 7.367,-9.0966 18.01218,-14.9356 29.64258,-16.2597 l 0,-43.65626 a 22.051207,22.051207 0 0 1 -17.05078,-21.4492 22.051207,22.051207 0 0 1 22.05078,-22.0508 z m -0.0606,10.9317 a 11.119435,11.119435 0 0 0 -11.12109,11.1191 11.119435,11.119435 0 0 0 11.12109,11.1191 11.119435,11.119435 0 0 0 11.11915,-11.1191 11.119435,11.119435 0 0 0 -11.11915,-11.1191 z m 39.62891,31.1093 a 11.472988,11.472988 0 0 0 -11.47265,11.4727 11.472988,11.472988 0 0 0 11.47265,11.4727 11.472988,11.472988 0 0 0 11.47266,-11.4727 11.472988,11.472988 0 0 0 -11.47266,-11.4727 z m -79.28711,0.1739 a 11.296212,11.296212 0 0 0 -11.29492,11.2968 11.296212,11.296212 0 0 0 11.29492,11.2969 11.296212,11.296212 0 0 0 11.29688,-11.2969 11.296212,11.296212 0 0 0 -11.29688,-11.2968 z m 39.6582,70.76556 a 18.482143,18.482143 0 0 0 -18.48242,18.4824 18.482143,18.482143 0 0 0 18.48242,18.4805 18.482143,18.482143 0 0 0 18.48047,-18.4805 18.482143,18.482143 0 0 0 -18.48047,-18.4824 z"
       id="rect6922-4" />
  </g>
</svg>
